<?xml version="1.0" encoding="UTF-8"?>
<svg id="Layer_1" data-name="Layer 1" xmlns="http://www.w3.org/2000/svg" viewBox="0 0 120 21.43">
  <defs>
    <style>
      .cls-1 {
        fill: #f2ec1d;
      }

      .cls-2 {
        fill: #e5e5e5;
      }
    </style>
  </defs>
  <path class="cls-1" d="M5.16,21.35c-.55,.28-1.18-.21-1.07-.85l1.19-6.76L.25,8.95c-.47-.45-.23-1.27,.4-1.36l7-.99L10.77,.42c.28-.56,1.04-.56,1.32,0l3.12,6.18,7,.99c.63,.09,.87,.91,.4,1.36l-5.03,4.79,1.19,6.76c.11,.63-.51,1.13-1.07,.85l-6.27-3.22-6.27,3.22h0Z"/>
  <path class="cls-1" d="M29.44,21.35c-.55,.28-1.18-.21-1.07-.85l1.19-6.76-5.03-4.79c-.47-.45-.23-1.27,.4-1.36l7-.99L35.05,.42c.28-.56,1.04-.56,1.32,0l3.12,6.18,7,.99c.63,.09,.87,.91,.4,1.36l-5.03,4.79,1.19,6.76c.11,.63-.51,1.13-1.07,.85l-6.27-3.22-6.27,3.22h0Z"/>
  <path class="cls-1" d="M53.73,21.35c-.55,.28-1.18-.21-1.07-.85l1.19-6.76-5.03-4.79c-.47-.45-.23-1.27,.4-1.36l7-.99L59.34,.42c.28-.56,1.04-.56,1.32,0l3.12,6.18,7,.99c.63,.09,.87,.91,.4,1.36l-5.03,4.79,1.19,6.76c.11,.63-.51,1.13-1.07,.85l-6.27-3.22-6.27,3.22h0Z"/>
  <path class="cls-1" d="M78.02,21.35c-.55,.28-1.18-.21-1.07-.85l1.19-6.76-5.03-4.79c-.47-.45-.23-1.27,.4-1.36l7-.99,3.12-6.18c.28-.56,1.04-.56,1.32,0l3.12,6.18,7,.99c.63,.09,.87,.91,.4,1.36l-5.03,4.79,1.19,6.76c.11,.63-.51,1.13-1.07,.85l-6.27-3.22-6.27,3.22h0Z"/>
  <path class="cls-2" d="M102.3,21.35c-.55,.28-1.18-.21-1.07-.85l1.19-6.76-5.03-4.79c-.47-.45-.23-1.27,.4-1.36l7-.99,3.12-6.18c.28-.56,1.04-.56,1.32,0l3.12,6.18,7,.99c.63,.09,.87,.91,.4,1.36l-5.03,4.79,1.19,6.76c.11,.63-.51,1.13-1.07,.85l-6.27-3.22-6.27,3.22h0Z"/>
</svg>